<!--?xml version="1.0" encoding="utf-8"?-->
<!-- Generator: Adobe Illustrator 18.1.1, SVG Export Plug-In . SVG Version: 6.00 Build 0)  -->

<svg version="1.1" id="_x32_" xmlns="http://www.w3.org/2000/svg" xmlns:xlink="http://www.w3.org/1999/xlink" x="0px" y="0px" viewBox="0 0 512 512" style="width: 256px; height: 256px; opacity: 1;" xml:space="preserve">
<style type="text/css">
	.st0{fill:#4B4B4B;}
</style>
<g>
	<path class="st0" d="M255.996,158.15c22.57,0,40.834-18.274,40.834-40.853c0-22.534-18.265-40.834-40.834-40.834
		c-22.544,0-40.835,18.3-40.835,40.834C215.161,139.877,233.452,158.15,255.996,158.15z" style="fill: rgb(75, 75, 75);"></path>
	<path class="st0" d="M255.996,172.037c-22.054,0-39.955,17.891-39.955,39.954v29.902h79.926v-29.902
		C295.967,189.929,278.085,172.037,255.996,172.037z" style="fill: rgb(75, 75, 75);"></path>
	<path class="st0" d="M47.294,362.315c-10.908-10.925-17.615-25.871-17.632-42.463v-61.794H0v61.794
		c0.018,49.545,40.23,89.739,89.765,89.774h40.532v-29.67H89.765C73.165,379.948,58.236,373.239,47.294,362.315z" style="fill: rgb(75, 75, 75);"></path>
	<path class="st0" d="M85.931,175.383c21.636,0,39.144-17.508,39.144-39.154c0-21.609-17.508-39.153-39.144-39.153
		c-21.618,0-39.153,17.544-39.153,39.153C46.778,157.874,64.313,175.383,85.931,175.383z" style="fill: rgb(75, 75, 75);"></path>
	<path class="st0" d="M179.166,308.776h-54.927v-81.758c0-21.165-17.135-38.318-38.308-38.318
		c-21.147,0-38.299,17.152-38.299,38.318v93.146c0,21.155,17.144,38.308,38.299,38.308c2.874,0,70.024-0.195,70.024-0.195
		l3.675,56.688c0.258,11.61,9.884,20.818,21.493,20.568c11.628-0.258,20.827-9.884,20.56-21.494l2.233-80.512
		C203.916,319.843,192.84,308.776,179.166,308.776z" style="fill: rgb(75, 75, 75);"></path>
	<path class="st0" d="M482.339,258.057v61.794c-0.018,16.592-6.726,31.538-17.634,42.463c-10.942,10.924-25.87,17.633-42.462,17.641
		h-40.541v29.67h40.541c49.526-0.036,89.73-40.23,89.757-89.774v-61.794H482.339z" style="fill: rgb(75, 75, 75);"></path>
	<path class="st0" d="M426.068,175.383c21.619,0,39.154-17.508,39.154-39.154c0-21.609-17.535-39.153-39.154-39.153
		c-21.636,0-39.144,17.544-39.144,39.153C386.925,157.874,404.432,175.383,426.068,175.383z" style="fill: rgb(75, 75, 75);"></path>
	<path class="st0" d="M464.377,320.163v-93.146c0-21.165-17.17-38.318-38.308-38.318c-21.173,0-38.307,17.152-38.307,38.318v81.758
		h-54.927c-13.674,0-24.75,11.067-24.75,24.75l2.233,80.512c-0.267,11.61,8.932,21.236,20.56,21.494
		c11.61,0.25,21.236-8.959,21.494-20.568l3.674-56.688c0,0,67.15,0.195,70.024,0.195
		C447.224,358.471,464.377,341.319,464.377,320.163z" style="fill: rgb(75, 75, 75);"></path>
	<rect x="153.65" y="258.431" class="st0" width="212.385" height="36.147" style="fill: rgb(75, 75, 75);"></rect>
	<rect x="244.048" y="313.98" class="st0" width="24.714" height="87.496" style="fill: rgb(75, 75, 75);"></rect>
</g>
</svg>
